# xmcd
#
# Track frame offsets:
#       182
#       28462
#       50877
#       72612
#       91857
#       117380
#       137120
#       161142
#
# Disc length: 2489 seconds
#
# Revision: 2
# Processed by: cddbd v1.4PL0 Copyright (c) Steve Scherf et al.
# Submitted via: WhereIsIt 3.24
#
DISCID=7d09b708
DTITLE=The Three Degrees - Tie U Up
DYEAR=1900
DGENRE=
TTITLE0=Tie U Up
TTITLE1=Win, Place Or Show
TTITLE2=Make It Easy On YourselfF
TTITLE3=Lock It Up
TTITLE4=Vital Signs
TTITLE5=A Tender Lie
TTITLE6=After The Night Is Over
TTITLE7=Are You That Kind Of Guy
EXTD=
EXTT0=
EXTT1=
EXTT2=
EXTT3=
EXTT4=
EXTT5=
EXTT6=
EXTT7=
PLAYORDER=
